<?xml version="1.0"?>
<svg xmlns="http://www.w3.org/2000/svg" xmlns:xlink="http://www.w3.org/1999/xlink" xmlns:svgjs="http://svgjs.com/svgjs" version="1.1" width="512" height="512" x="0" y="0" viewBox="0 0 64 64" style="enable-background:new 0 0 512 512" xml:space="preserve" class=""><circle r="32" cx="32" cy="32" fill="#72a5bf" shape="circle"/><g transform="matrix(0.7,0,0,0.7,9.600000000000001,9.599999713897706)"><path xmlns="http://www.w3.org/2000/svg" d="m26 6.495c1.11 0 2 .899 2 2 0 1.109-.89 2-2 2h-4c-1.1 0-2-.891-2-2 0-1.101.9-2 2-2z" fill="#4c8aab" data-original="#da4453" style="" class=""/><path xmlns="http://www.w3.org/2000/svg" d="m28 8.495v4h-.01c0 .56.45 1.01 1.01 1.01v-.01h2c2.86-5.351 8.51-9 15-9 9.39 0 17 7.62 17 17v.01c0 21-17 38-38 38h-3c-7.18 0-13-5.81-13-13v10.99c0-1.101-.89-2-2-2h-4c-1.1 0-2 .899-2 2v-11c0-4.28 3.36-7.78 7.59-7.99h.41 3v-.01c9.4 0 17-7.601 17-16.99v-.01c-4.97 0-9-4.021-9-9v-4c0 1.109.9 2 2 2h4c1.11 0 2-.891 2-2z" fill="#1b5d81" data-original="#ed5565" style="" class=""/><path xmlns="http://www.w3.org/2000/svg" d="m7 55.495c1.11 0 2 .899 2 2 0 1.109-.89 2-2 2h-4c-1.1 0-2-.891-2-2 0-1.101.9-2 2-2z" fill="#4c8aab" data-original="#da4453" style="" class=""/></g></svg>
